<?xml version="1.0" encoding="UTF-8" standalone="no"?>
<!-- Created with Inkscape (http://www.inkscape.org/) -->

<svg
   width="51.827206mm"
   height="65.286812mm"
   viewBox="0 0 51.827206 65.286812"
   version="1.1"
   id="svg1"
   xml:space="preserve"
   inkscape:version="1.4.2 (f4327f4, 2025-05-13)"
   sodipodi:docname="ashes.svg"
   xmlns:inkscape="http://www.inkscape.org/namespaces/inkscape"
   xmlns:sodipodi="http://sodipodi.sourceforge.net/DTD/sodipodi-0.dtd"
   xmlns="http://www.w3.org/2000/svg"
   xmlns:svg="http://www.w3.org/2000/svg"><sodipodi:namedview
     id="namedview1"
     pagecolor="#ffffff"
     bordercolor="#000000"
     borderopacity="0.25"
     inkscape:showpageshadow="2"
     inkscape:pageopacity="0.0"
     inkscape:pagecheckerboard="0"
     inkscape:deskcolor="#d1d1d1"
     inkscape:document-units="mm"
     inkscape:zoom="2.1543544"
     inkscape:cx="-25.297602"
     inkscape:cy="152.48188"
     inkscape:window-width="1920"
     inkscape:window-height="1057"
     inkscape:window-x="-8"
     inkscape:window-y="-8"
     inkscape:window-maximized="1"
     inkscape:current-layer="layer1" /><defs
     id="defs1" /><g
     inkscape:label="Camada 1"
     inkscape:groupmode="layer"
     id="layer1"
     style="mix-blend-mode:normal"
     transform="translate(-84.986795,-143.26028)" /><g
     inkscape:groupmode="layer"
     id="layer4"
     inkscape:label="Camada 2"
     style="display:inline;opacity:1"
     transform="translate(-84.986795,-143.26028)"><path
       style="mix-blend-mode:normal;fill:#f3e6ce;fill-opacity:0.811765;stroke:none;stroke-width:0.25"
       id="path8"
       sodipodi:type="arc"
       sodipodi:cx="110.9004"
       sodipodi:cy="204.06441"
       sodipodi:rx="25.913603"
       sodipodi:ry="4.4826846"
       sodipodi:start="0"
       sodipodi:end="6.2817141"
       sodipodi:open="true"
       sodipodi:arc-type="arc"
       d="m 136.814,204.06441 a 25.913603,4.4826846 0 0 1 -25.90407,4.48268 25.913603,4.4826846 0 0 1 -25.923128,-4.47939 25.913603,4.4826846 0 0 1 25.885008,-4.48597 25.913603,4.4826846 0 0 1 25.94216,4.47608" /><path
       id="path1"
       style="display:inline;fill:#aba58f;fill-opacity:1;stroke:#716c54;stroke-width:0.272927;stroke-opacity:1"
       d="m 111.50602,184.90192 a 9.2028704,4.729641 0 0 0 -9.19272,4.73304 9.2028704,4.729641 0 0 0 0.16329,0.88367 17.194887,6.0306859 0 0 0 -7.98763,5.09788 17.194887,6.0306859 0 0 0 0.101802,0.6506 23.182133,6.0199547 0 0 0 -6.256982,4.11862 23.182133,6.0199547 0 0 0 23.19084,6.01513 23.182133,6.0199547 0 0 0 23.17378,-6.01979 v -0.009 a 23.182133,6.0199547 0 0 0 -5.95054,-4.01836 17.194887,6.0306859 0 0 0 0.13074,-0.74207 v -0.009 a 17.194887,6.0306859 0 0 0 -8.29872,-5.15214 9.2028704,4.729641 0 0 0 0.13901,-0.81959 v -0.007 a 9.2028704,4.729641 0 0 0 -9.21287,-4.7227 z" /><path
       id="path6"
       style="baseline-shift:baseline;display:inline;overflow:visible;opacity:1;vector-effect:none;fill:#ffefcf;fill-opacity:1;enable-background:accumulate;stop-color:#000000;stop-opacity:1"
       d="m 105.75837,148.71141 c -1.20987,3.43056 -2.61502,7.9387 0.75658,11.93667 5.47242,6.48907 5.37655,7.27975 4.22506,10.72596 -2.3923,7.15972 -0.73946,12.10237 -0.4346,9.01495 0.43752,-4.43095 4.2455,-6.02672 6.41153,-10.54029 3.18147,-6.62956 1.13671,-8.5101 -3.90167,-14.3911 -2.40011,-2.80151 -5.18164,-5.25008 -3.4576,-11.34495 0.86904,-3.07226 -3.04599,3.02985 -3.5993,4.59876 z"
       sodipodi:nodetypes="ssssssss" /><path
       style="fill:#8c8775;fill-opacity:1;stroke:#8b8875;stroke-width:0.25;stroke-opacity:1"
       id="path9"
       sodipodi:type="arc"
       sodipodi:cx="102.67191"
       sodipodi:cy="196.19423"
       sodipodi:rx="1.2281328"
       sodipodi:ry="1.0439129"
       sodipodi:start="0"
       sodipodi:end="6.2817141"
       sodipodi:open="true"
       sodipodi:arc-type="arc"
       d="m 103.90005,196.19423 a 1.2281328,1.0439129 0 0 1 -1.22769,1.04391 1.2281328,1.0439129 0 0 1 -1.22858,-1.04314 1.2281328,1.0439129 0 0 1 1.22678,-1.04468 1.2281328,1.0439129 0 0 1 1.22948,1.04237" /><path
       style="fill:#8c8775;fill-opacity:1;stroke:#8b8875;stroke-width:0.204399;stroke-opacity:1"
       id="path10"
       sodipodi:type="arc"
       sodipodi:cx="123.41859"
       sodipodi:cy="198.10289"
       sodipodi:rx="1.4711869"
       sodipodi:ry="1.4788322"
       sodipodi:start="0"
       sodipodi:end="6.2817141"
       sodipodi:open="true"
       sodipodi:arc-type="arc"
       d="m 124.88977,198.10289 a 1.4711869,1.4788322 0 0 1 -1.47064,1.47883 1.4711869,1.4788322 0 0 1 -1.47173,-1.47774 1.4711869,1.4788322 0 0 1 1.46956,-1.47992 1.4711869,1.4788322 0 0 1 1.47281,1.47665" /><path
       style="fill:#8c8775;fill-opacity:1;stroke:#8b8875;stroke-width:0.25;stroke-opacity:1"
       id="path12"
       sodipodi:type="arc"
       sodipodi:cx="94.60379"
       sodipodi:cy="201.39888"
       sodipodi:rx="0.88353419"
       sodipodi:ry="0.69038182"
       sodipodi:start="0"
       sodipodi:end="6.2817141"
       sodipodi:open="true"
       sodipodi:arc-type="arc"
       d="m 95.487324,201.39888 a 0.88353419,0.69038182 0 0 1 -0.883209,0.69038 0.88353419,0.69038182 0 0 1 -0.883859,-0.68987 0.88353419,0.69038182 0 0 1 0.882559,-0.69089 0.88353419,0.69038182 0 0 1 0.884509,0.68936" /><path
       style="fill:#8c8775;fill-opacity:1;stroke:#8b8875;stroke-width:0.25;stroke-opacity:1"
       id="path13"
       sodipodi:type="arc"
       sodipodi:cx="114.6462"
       sodipodi:cy="188.6105"
       sodipodi:rx="1.1667261"
       sodipodi:ry="0.76758301"
       sodipodi:start="0"
       sodipodi:end="6.2817141"
       sodipodi:open="true"
       sodipodi:arc-type="arc"
       d="m 115.81293,188.6105 a 1.1667261,0.76758301 0 0 1 -1.1663,0.76759 1.1667261,0.76758301 0 0 1 -1.16715,-0.76702 1.1667261,0.76758301 0 0 1 1.16543,-0.76815 1.1667261,0.76758301 0 0 1 1.16802,0.76645" /></g></svg>
