<svg width="307" height="424" viewBox="0 0 307 424" fill="none" xmlns="http://www.w3.org/2000/svg">
<mask id="mask0_46_211" style="mask-type:alpha" maskUnits="userSpaceOnUse" x="31" y="150" width="24" height="22">
<path d="M37.75 150.387C34.1726 150.387 31.25 153.262 31.25 156.835C31.25 158.175 31.5198 160.352 33.0069 162.932C34.4899 165.505 37.1442 168.41 41.8078 171.277L41.8127 171.28C42.1704 171.498 42.5812 171.613 43 171.613C43.4188 171.613 43.8296 171.498 44.1873 171.28L44.1922 171.277C48.8558 168.41 51.5101 165.505 52.9931 162.932C54.4802 160.352 54.75 158.175 54.75 156.835C54.75 153.262 51.8274 150.387 48.25 150.387C46.3653 150.387 44.7707 151.396 43.7402 152.25C43.464 152.479 43.216 152.707 43 152.919C42.784 152.707 42.536 152.479 42.2598 152.25C41.2293 151.396 39.6347 150.387 37.75 150.387Z" fill="#006FFD"/>
</mask>
<g mask="url(#mask0_46_211)">
<rect x="31" y="149" width="24" height="24" fill="#E86339"/>
</g>
<mask id="mask1_46_211" style="mask-type:alpha" maskUnits="userSpaceOnUse" x="270" y="259" width="24" height="22">
<path d="M276.75 259.387C273.173 259.387 270.25 262.262 270.25 265.835C270.25 267.175 270.52 269.352 272.007 271.932C273.49 274.505 276.144 277.41 280.808 280.277L280.813 280.28C281.17 280.498 281.581 280.613 282 280.613C282.419 280.613 282.83 280.498 283.187 280.28L283.192 280.277C287.856 277.41 290.51 274.505 291.993 271.932C293.48 269.352 293.75 267.175 293.75 265.835C293.75 262.262 290.827 259.387 287.25 259.387C285.365 259.387 283.771 260.396 282.74 261.25C282.464 261.479 282.216 261.707 282 261.919C281.784 261.707 281.536 261.479 281.26 261.25C280.229 260.396 278.635 259.387 276.75 259.387Z" fill="#006FFD"/>
</mask>
<g mask="url(#mask1_46_211)">
<rect x="270" y="258" width="24" height="24" fill="#E86339"/>
</g>
<mask id="mask2_46_211" style="mask-type:alpha" maskUnits="userSpaceOnUse" x="188" y="51" width="41" height="37">
<path d="M199.531 51.3701C193.42 51.3701 188.427 56.2808 188.427 62.3846C188.427 64.6734 188.888 68.3928 191.428 72.8001C193.962 77.1952 198.496 82.1583 206.463 87.0561L206.472 87.0612C207.083 87.4331 207.785 87.6298 208.5 87.6298C209.216 87.6298 209.917 87.4331 210.528 87.0612L210.537 87.0561C218.504 82.1583 223.038 77.1952 225.572 72.8001C228.112 68.3928 228.573 64.6734 228.573 62.3846C228.573 56.2808 223.58 51.3701 217.469 51.3701C214.249 51.3701 211.525 53.0929 209.765 54.5521C209.293 54.9431 208.869 55.3327 208.5 55.6955C208.131 55.3327 207.707 54.9431 207.236 54.5521C205.475 53.0929 202.751 51.3701 199.531 51.3701Z" fill="#006FFD"/>
</mask>
<g mask="url(#mask2_46_211)">
<rect x="188" y="49" width="41" height="41" fill="#E86339"/>
</g>
<mask id="mask3_46_211" style="mask-type:alpha" maskUnits="userSpaceOnUse" x="26" y="355" width="36" height="32">
<path d="M36.125 355.081C30.7589 355.081 26.375 359.393 26.375 364.752C26.375 366.762 26.7796 370.028 29.0103 373.898C31.2348 377.757 35.2163 382.115 42.2116 386.415L42.219 386.42C42.7557 386.746 43.3718 386.919 44 386.919C44.6282 386.919 45.2443 386.746 45.781 386.42L45.7884 386.415C52.7837 382.115 56.7652 377.757 58.9897 373.898C61.2204 370.028 61.625 366.762 61.625 364.752C61.625 359.393 57.2411 355.081 51.875 355.081C49.0479 355.081 46.6561 356.594 45.1103 357.875C44.6961 358.218 44.324 358.56 44 358.879C43.676 358.56 43.3039 358.218 42.8897 357.875C41.3439 356.594 38.9521 355.081 36.125 355.081Z" fill="#006FFD"/>
</mask>
<g mask="url(#mask3_46_211)">
<rect x="26" y="353" width="36" height="36" fill="#E86339"/>
</g>
<path d="M13.5238 261.592C14.1496 260.803 15.3472 260.803 15.9729 261.592L21.6219 268.713C22.7961 270.147 23.4967 271.958 23.4967 273.926C23.4967 278.578 19.58 282.35 14.7484 282.35C9.91677 282.35 6 278.578 6 273.926C6 273.599 6.01927 273.277 6.05677 272.961L6.03705 265.864C6.03414 264.82 6.60263 264.05 7.57442 264.214C7.76809 264.246 8.17748 264.369 8.36091 264.468L10.3838 265.55L13.5238 261.592Z" fill="#FE9504"/>
<path d="M15.339 270.156C15.0315 269.737 14.4058 269.737 14.0983 270.156L11.89 273.163C11.8694 273.191 11.8532 273.22 11.8412 273.25C11.3147 273.872 10.999 274.666 10.999 275.531C10.999 277.525 12.6776 279.141 14.7483 279.141C16.819 279.141 18.4976 277.525 18.4976 275.531C18.4976 274.554 18.0953 273.669 17.4415 273.019L15.339 270.156Z" fill="#FFC901"/>
<path d="M283.744 136.081C284.887 134.64 287.075 134.64 288.218 136.081L298.537 149.09C300.682 151.71 301.961 155.016 301.961 158.611C301.961 167.11 294.807 174 285.981 174C277.155 174 270 167.11 270 158.611C270 158.015 270.035 157.427 270.104 156.848L270.068 143.885C270.062 141.978 271.101 140.571 272.876 140.87C273.23 140.93 273.978 141.155 274.313 141.334L278.008 143.312L283.744 136.081Z" fill="#FE9504"/>
<path d="M287.06 151.725C286.498 150.96 285.355 150.96 284.793 151.725L280.759 157.218C280.722 157.269 280.692 157.323 280.67 157.378C279.708 158.514 279.132 159.964 279.132 161.543C279.132 165.186 282.198 168.138 285.981 168.138C289.763 168.138 292.829 165.186 292.829 161.543C292.829 159.76 292.095 158.142 290.9 156.955L287.06 151.725Z" fill="#FFC901"/>
<path d="M205.744 368.081C206.887 366.64 209.075 366.64 210.218 368.081L220.537 381.09C222.682 383.71 223.961 387.016 223.961 390.611C223.961 399.11 216.807 406 207.981 406C199.155 406 192 399.11 192 390.611C192 390.015 192.035 389.427 192.104 388.848L192.068 375.885C192.062 373.978 193.101 372.571 194.876 372.87C195.23 372.93 195.978 373.155 196.313 373.334L200.008 375.312L205.744 368.081Z" fill="#FE9504"/>
<path d="M209.06 383.725C208.498 382.96 207.355 382.96 206.793 383.725L202.759 389.218C202.722 389.269 202.692 389.323 202.67 389.378C201.708 390.514 201.132 391.964 201.132 393.543C201.132 397.186 204.198 400.138 207.981 400.138C211.763 400.138 214.829 397.186 214.829 393.543C214.829 391.76 214.095 390.142 212.9 388.955L209.06 383.725Z" fill="#FFC901"/>
<path d="M68.268 19.358C69.704 17.5473 72.4527 17.5473 73.8888 19.358L86.8538 35.7032C89.5487 38.9941 91.1567 43.1488 91.1567 47.6653C91.1567 58.3435 82.1674 67 71.0784 67C59.9894 67 51 58.3435 51 47.6653C51 46.9163 51.0442 46.1772 51.1303 45.4506L51.085 29.1633C51.0784 26.7671 52.3831 24.9994 54.6135 25.3753C55.0579 25.4502 55.9975 25.7333 56.4185 25.9586L61.0612 28.4437L68.268 19.358Z" fill="#FE9504"/>
<path d="M72.434 39.0135C71.7282 38.0525 70.2922 38.0525 69.5864 39.0135L64.5182 45.915C64.4708 45.9794 64.4337 46.0469 64.4061 46.1157C63.1978 47.5426 62.4733 49.3644 62.4733 51.3491C62.4733 55.9254 66.3258 59.6354 71.0783 59.6354C75.8307 59.6354 79.6833 55.9254 79.6833 51.3491C79.6833 49.1086 78.7599 47.0757 77.2594 45.5841L72.434 39.0135Z" fill="#FFC901"/>
<path d="M156.472 357.513C188.62 357.513 214.681 352.121 214.681 345.47C214.681 338.818 188.62 333.427 156.472 333.427C124.324 333.427 98.2634 338.818 98.2634 345.47C98.2634 352.121 124.324 357.513 156.472 357.513Z" fill="#F2E3CA" fill-opacity="0.980392"/>
<path d="M176.711 290.272C167.36 290.272 159.04 287.514 155.994 297.503C152.67 288.097 144.609 291.39 135.645 291.39C123.543 291.389 113.732 302.473 113.732 316.145C113.732 329.817 123.543 340.901 135.645 340.901C144.996 340.901 150.306 335.2 156.529 326.883C163.533 333.78 167.747 339.782 176.711 339.782C188.813 339.783 198.624 328.699 198.624 315.027C198.624 301.355 188.813 290.272 176.711 290.272Z" fill="#EE5808" stroke="#F43403" stroke-width="1.88976"/>
<path d="M235.983 232.232C235.983 278.391 202.641 305.181 155.457 305.774C97.2366 306.504 74.931 271.365 74.931 225.206C74.931 202.127 85.7994 180.433 101.513 165.318C123.168 144.486 134.175 130.094 134.005 112.391C133.628 73.069 178.789 106.522 203.141 139.294C227.493 172.065 235.983 209.152 235.983 232.232Z" fill="#FE8F00" stroke="#FD7E0C" stroke-opacity="0.901961" stroke-width="2.83465"/>
<path d="M156.514 294.65C137.093 294.65 112.523 285.791 103.512 274.019C96.7097 265.132 92.9771 251.572 94.9259 236.154C96.8747 220.736 102.955 204.955 109.456 197.784C122.459 183.444 140.871 197.517 145.633 181.864C150.395 166.212 166.713 167.486 171.704 182.954C176.695 198.422 184.588 184.652 200.403 193.92C208.311 198.555 217.773 220.428 219.652 236.804C221.532 253.181 215.83 264.061 209.467 272.132C196.742 288.275 175.935 294.65 156.514 294.65Z" fill="#FFBA00" stroke="#FE7E0B" stroke-opacity="0.901961" stroke-width="2.42202"/>
<path d="M185.242 268.317C197.067 268.317 206.652 256.579 206.652 242.099C206.652 227.619 197.067 215.881 185.242 215.881C173.418 215.881 163.832 227.619 163.832 242.099C163.832 256.579 173.418 268.317 185.242 268.317Z" fill="#FEFEFF" stroke="#FE9C3F" stroke-width="1.88976"/>
<path d="M182.242 259.477C189.297 259.477 195.016 252.487 195.016 243.864C195.016 235.242 189.297 228.252 182.242 228.252C175.187 228.252 169.468 235.242 169.468 243.864C169.468 252.487 175.187 259.477 182.242 259.477Z" fill="#393732" stroke="#242424" stroke-width="3.77953"/>
<path d="M127.524 268.79C115.699 268.79 106.113 257.052 106.113 242.572C106.113 228.092 115.699 216.354 127.524 216.354C139.348 216.354 148.934 228.092 148.934 242.572C148.934 257.052 139.348 268.79 127.524 268.79Z" fill="#FEFEFE" stroke="#FE9C3F" stroke-width="1.88976"/>
<path d="M130.524 259.95C123.469 259.95 117.75 252.96 117.75 244.337C117.75 235.715 123.469 228.725 130.524 228.725C137.578 228.725 143.297 235.715 143.297 244.337C143.297 252.96 137.578 259.95 130.524 259.95Z" fill="#373833" stroke="#242424" stroke-width="3.77953"/>
<path d="M165.993 272.21C165.993 275.105 164.934 277.882 163.05 279.932C161.166 281.981 158.61 283.136 155.943 283.142C153.275 283.149 150.715 282.006 148.822 279.966C146.93 277.925 145.86 275.153 145.849 272.258L155.921 272.21H165.993Z" fill="#7B5A2B" stroke="#664C34" stroke-width="1.88976"/>
</svg>
