<?xml version="1.0" encoding="UTF-8" standalone="no"?>
<!-- Created with Inkscape (http://www.inkscape.org/) -->

<svg
   width="119.67842mm"
   height="158.35109mm"
   viewBox="0 0 119.67842 158.35109"
   version="1.1"
   id="svg1"
   xml:space="preserve"
   inkscape:version="1.4.2 (f4327f4, 2025-05-13)"
   sodipodi:docname="Baby.svg"
   xmlns:inkscape="http://www.inkscape.org/namespaces/inkscape"
   xmlns:sodipodi="http://sodipodi.sourceforge.net/DTD/sodipodi-0.dtd"
   xmlns="http://www.w3.org/2000/svg"
   xmlns:svg="http://www.w3.org/2000/svg"><sodipodi:namedview
     id="namedview1"
     pagecolor="#ffffff"
     bordercolor="#000000"
     borderopacity="0.25"
     inkscape:showpageshadow="2"
     inkscape:pageopacity="0.0"
     inkscape:pagecheckerboard="0"
     inkscape:deskcolor="#d1d1d1"
     inkscape:document-units="mm"
     inkscape:zoom="0.76167929"
     inkscape:cx="-54.484874"
     inkscape:cy="247.47949"
     inkscape:window-width="1920"
     inkscape:window-height="1057"
     inkscape:window-x="-8"
     inkscape:window-y="-8"
     inkscape:window-maximized="1"
     inkscape:current-layer="svg1"
     showguides="false" /><defs
     id="defs1" /><g
     inkscape:groupmode="layer"
     id="layer4"
     inkscape:label="Camada 4"
     transform="translate(-35.576904,-56.215134)"><ellipse
       style="fill:#f2e3ca;fill-opacity:0.980392;stroke:none;stroke-width:0.750001;stroke-dasharray:none;stroke-opacity:1"
       id="path11"
       cx="96.047371"
       cy="204.42632"
       rx="30.221052"
       ry="6.2526317" /><path
       id="path4"
       style="fill:#ee5808;fill-opacity:1;stroke:#f43403;stroke-width:0.5;stroke-dasharray:none;stroke-opacity:1"
       d="m 106.55525,175.7686 c -4.85487,5e-5 -9.174745,-1.43171 -10.75593,3.75412 -1.726021,-4.88337 -5.910931,-3.17384 -10.565246,-3.17379 -6.282998,-1.6e-4 -11.376474,5.75409 -11.376567,12.85244 -1.61e-4,7.09855 5.093389,12.85312 11.376567,12.85296 4.85499,-1.3e-4 7.611747,-2.96008 10.842775,-7.2777 3.636544,3.58074 5.824081,6.69691 10.478401,6.69686 6.283,1.6e-4 11.37648,-5.7541 11.37657,-12.85245 -9e-5,-7.09835 -5.09357,-12.8526 -11.37657,-12.85244 z"
       sodipodi:nodetypes="ccccscccc" /></g><g
     inkscape:groupmode="layer"
     id="layer2"
     inkscape:label="Camada 2"
     transform="translate(-35.576904,-56.215134)"><path
       id="path2"
       style="fill:#fe8f00;fill-opacity:1;stroke:#fd7e0c;stroke-width:0.75;stroke-dasharray:none;stroke-opacity:0.901961"
       d="m 137.32813,145.63499 c 0,23.96491 -17.31072,37.87432 -41.807809,38.18177 -30.227145,0.37937 -41.807809,-17.86423 -41.807807,-41.82914 1e-6,-11.98245 5.642666,-23.2455 13.800671,-31.09325 11.24308,-10.8155 16.957865,-18.287533 16.869655,-27.478947 -0.195923,-20.415141 23.25109,-3.046944 35.89425,13.967619 12.64316,17.014568 17.05104,36.269498 17.05104,48.251948 z"
       sodipodi:nodetypes="sssssss"
       inkscape:label="path2" /></g><g
     inkscape:groupmode="layer"
     id="layer3"
     inkscape:label="Camada 3"
     transform="translate(-35.576904,-56.215134)"><path
       id="path3"
       style="fill:#ffba00;fill-opacity:1;stroke:#fe7e0b;stroke-width:0.640826;stroke-dasharray:none;stroke-opacity:0.901961"
       d="m 96.06907,178.04141 c -10.082921,0 -22.839661,-4.59938 -27.517681,-10.71115 -3.53175,-4.61418 -5.46965,-11.65398 -4.45787,-19.65889 1.01178,-8.00492 4.16861,-16.19824 7.54402,-19.92088 6.75081,-7.44529 16.30976,-0.13897 18.78222,-8.2655 2.472455,-8.12653 10.944251,-7.46506 13.535541,0.56568 2.59129,8.03074 6.68909,0.88149 14.9003,5.69362 4.1056,2.40606 9.01794,13.76236 9.99383,22.26478 0.9759,8.50242 -1.98464,14.15096 -5.28794,18.34153 -6.6066,8.38114 -17.4095,11.69081 -27.49242,11.69081 z"
       sodipodi:nodetypes="zssszzsssz"
       inkscape:label="path2" /></g><g
     inkscape:groupmode="layer"
     id="layer5"
     inkscape:label="Camada 5"
     transform="translate(-35.576904,-56.215134)"><ellipse
       style="fill:#fefeff;fill-opacity:1;stroke:#fe9c3f;stroke-width:0.5;stroke-dasharray:none;stroke-opacity:1"
       id="path7"
       cx="110.98421"
       cy="150.7579"
       rx="11.115789"
       ry="13.612082" /><ellipse
       style="fill:#393732;fill-opacity:1;stroke:#242424;stroke-width:1;stroke-dasharray:none;stroke-opacity:1"
       id="path8"
       ry="8.1056767"
       rx="6.631917"
       cy="151.67441"
       cx="109.42664" /><ellipse
       style="fill:#fefefe;fill-opacity:1;stroke:#fe9c3f;stroke-width:0.5;stroke-dasharray:none;stroke-opacity:1"
       id="ellipse8"
       cx="-81.017769"
       cy="151.00352"
       rx="11.115789"
       ry="13.612082"
       transform="scale(-1,1)" /><ellipse
       style="fill:#373833;fill-opacity:1;stroke:#242424;stroke-width:1;stroke-dasharray:none;stroke-opacity:1"
       id="ellipse9"
       ry="8.1056767"
       rx="6.631917"
       cy="151.92003"
       cx="-82.575333"
       transform="scale(-1,1)" /><path
       style="fill:#7b5a2b;fill-opacity:1;stroke:#664c34;stroke-width:0.5;stroke-dasharray:none;stroke-opacity:1"
       id="path10"
       sodipodi:type="arc"
       sodipodi:cx="95.760963"
       sodipodi:cy="166.39096"
       sodipodi:rx="5.2292247"
       sodipodi:ry="5.6760564"
       sodipodi:start="0"
       sodipodi:end="3.1371701"
       sodipodi:arc-type="slice"
       d="m 100.99019,166.39096 a 5.2292247,5.6760564 0 0 1 -5.217663,5.67604 5.2292247,5.6760564 0 0 1 -5.240737,-5.65094 l 5.229173,-0.0251 z" /></g></svg>
